<?xml version="1.0" encoding="UTF-8"?>
<svg xmlns="http://www.w3.org/2000/svg" xmlns:xlink="http://www.w3.org/1999/xlink" width="365pt" height="96.71pt" viewBox="0 0 365 96.71" version="1.1">
<defs>
<clipPath id="clip1">
  <path d="M 104 6 L 118 6 L 118 96.710938 L 104 96.710938 Z M 104 6 "/>
</clipPath>
<clipPath id="clip2">
  <path d="M 222 6 L 243 6 L 243 96.710938 L 222 96.710938 Z M 222 6 "/>
</clipPath>
<clipPath id="clip3">
  <path d="M 260 6 L 281 6 L 281 96.710938 L 260 96.710938 Z M 260 6 "/>
</clipPath>
<clipPath id="clip4">
  <path d="M 283 6 L 307 6 L 307 96.710938 L 283 96.710938 Z M 283 6 "/>
</clipPath>
<clipPath id="clip5">
  <path d="M 318 6 L 332 6 L 332 96.710938 L 318 96.710938 Z M 318 6 "/>
</clipPath>
<clipPath id="clip6">
  <path d="M 338 6 L 361 6 L 361 96.710938 L 338 96.710938 Z M 338 6 "/>
</clipPath>
<clipPath id="clip7">
  <path d="M 124 14 L 156 14 L 156 96.710938 L 124 96.710938 Z M 124 14 "/>
</clipPath>
<clipPath id="clip8">
  <path d="M 199 48 L 220 48 L 220 96.710938 L 199 96.710938 Z M 199 48 "/>
</clipPath>
<clipPath id="clip9">
  <path d="M 68 49 L 99 49 L 99 96.710938 L 68 96.710938 Z M 68 49 "/>
</clipPath>
<clipPath id="clip10">
  <path d="M 22 52 L 37 52 L 37 96.710938 L 22 96.710938 Z M 22 52 "/>
</clipPath>
<clipPath id="clip11">
  <path d="M 5 54 L 19 54 L 19 96.710938 L 5 96.710938 Z M 5 54 "/>
</clipPath>
<clipPath id="clip12">
  <path d="M 188 71 L 200 71 L 200 96.710938 L 188 96.710938 Z M 188 71 "/>
</clipPath>
<clipPath id="clip13">
  <path d="M 42 81 L 64 81 L 64 96.710938 L 42 96.710938 Z M 42 81 "/>
</clipPath>
<clipPath id="clip14">
  <path d="M 161 81 L 183 81 L 183 96.710938 L 161 96.710938 Z M 161 81 "/>
</clipPath>
</defs>
<g id="surface1">
<path style=" stroke:none;fill-rule:nonzero;fill:rgb(92.89856%,11.799622%,14.099121%);fill-opacity:1;" d="M 71.113281 0.808594 C 75.320313 -0.300781 79.714844 0.0742188 84.019531 0.0117188 C 86.730469 0.0976563 89.722656 0.144531 92.015625 1.800781 C 94.242188 3.667969 95.167969 6.574219 95.917969 9.28125 C 96.507813 16.679688 96.265625 24.117188 96.28125 31.53125 C 94.742188 31.558594 93.183594 31.640625 91.664063 31.355469 C 89.515625 30.769531 87.394531 31.726563 85.25 31.824219 C 84.308594 31.925781 83.359375 31.941406 82.417969 31.980469 C 82.371094 28.351563 82.457031 24.730469 82.355469 21.101563 C 82.386719 19.144531 82.832031 16.832031 81.480469 15.199219 C 80.726563 14.191406 79.328125 14.929688 78.945313 15.886719 C 78.160156 17.789063 78.792969 19.984375 77.828125 21.847656 C 78.992188 24.394531 78.054688 27.242188 78.710938 29.886719 C 79.058594 31.375 80.289063 32.402344 81.441406 33.296875 C 82.707031 34.273438 83.976563 35.242188 85.265625 36.183594 C 85.832031 36.597656 86.398438 37.015625 86.945313 37.457031 C 89.332031 39.515625 91.992188 41.375 93.730469 44.058594 C 94.792969 45.632813 95.269531 47.492188 95.855469 49.277344 C 96.363281 54.105469 96.300781 58.976563 96.304688 63.832031 C 96.289063 68.996094 96.378906 74.167969 96.125 79.332031 C 96 81.386719 95.753906 83.511719 94.71875 85.332031 C 93.925781 86.671875 93.371094 88.21875 92.128906 89.21875 C 90.6875 90.34375 88.839844 90.75 87.0625 90.964844 C 82.417969 91.371094 77.722656 91.507813 73.082031 90.9375 C 71.582031 90.742188 70.15625 90.183594 68.839844 89.453125 C 66.058594 87.191406 65.179688 83.464844 64.921875 80.046875 C 64.636719 75.730469 64.765625 71.394531 64.730469 67.074219 C 64.78125 65.089844 64.535156 63.066406 65.09375 61.136719 C 65.480469 60.175781 64.652344 59.355469 64.59375 58.429688 C 64.488281 56.808594 64.601563 55.183594 64.765625 53.574219 C 68.867188 53.519531 72.972656 53.640625 77.070313 53.503906 C 77.554688 53.5625 78.210938 53.417969 78.492188 53.9375 C 78.460938 55.710938 78.445313 57.484375 78.445313 59.257813 C 78.460938 63.421875 78.425781 67.589844 78.453125 71.753906 C 78.539063 73.089844 78.515625 74.589844 79.382813 75.691406 C 79.992188 76.402344 80.929688 76.105469 81.632813 75.738281 C 82.554688 74.210938 82.410156 72.378906 82.417969 70.671875 C 82.375 66.296875 82.484375 61.925781 82.316406 57.550781 C 82.285156 56.105469 82.238281 54.476563 81.15625 53.382813 C 79.796875 51.957031 77.980469 51.066406 76.640625 49.617188 C 75.605469 48.425781 74.09375 47.859375 72.867188 46.90625 C 71.5 45.859375 70.234375 44.6875 68.882813 43.621094 C 66.316406 41.242188 65.242188 37.714844 64.96875 34.320313 C 64.578125 29.15625 64.78125 23.972656 64.730469 18.800781 C 64.769531 15.019531 64.632813 11.183594 65.472656 7.472656 C 66.125 4.539063 68.074219 1.625 71.113281 0.808594 "/>
<path style=" stroke:none;fill-rule:nonzero;fill:rgb(92.89856%,11.799622%,14.099121%);fill-opacity:1;" d="M 14.171875 15.234375 C 14.050781 22.9375 14.058594 30.65625 14.167969 38.363281 C 15.375 38.261719 17.113281 38.492188 17.648438 37.085938 C 18.175781 35.5 18.121094 33.78125 18.1875 32.128906 C 18.171875 27.226563 18.289063 22.320313 17.917969 17.425781 C 17.839844 16.664063 17.539063 15.789063 16.785156 15.460938 C 15.933594 15.238281 15.042969 15.285156 14.171875 15.234375 Z M 0.394531 0.46875 C 6.777344 0.539063 13.160156 0.335938 19.535156 0.65625 C 22.371094 0.707031 25.421875 0.929688 27.816406 2.609375 C 29.558594 3.851563 30.402344 5.917969 31.027344 7.882813 C 31.792969 11.222656 31.890625 14.667969 31.886719 18.078125 C 31.847656 22.640625 31.933594 27.203125 31.839844 31.765625 C 31.601563 35.484375 31.566406 39.402344 29.855469 42.808594 C 29.078125 44.441406 27.539063 45.488281 26.003906 46.324219 C 28.171875 47.539063 29.828125 49.496094 30.65625 51.839844 C 30.765625 52.082031 30.859375 52.332031 30.9375 52.582031 C 31.957031 56.605469 31.84375 60.792969 31.882813 64.910156 C 31.875 73.605469 31.890625 82.296875 31.875 90.988281 C 28.886719 91.007813 25.898438 91.015625 22.914063 90.972656 C 22.902344 91.085938 22.875 91.320313 22.863281 91.441406 C 21.558594 91.34375 20.257813 91.382813 18.953125 91.347656 C 18.765625 91.257813 18.394531 91.082031 18.207031 90.996094 C 18.152344 83.746094 18.214844 76.488281 18.175781 69.234375 C 18.136719 67.070313 18.503906 64.898438 18.160156 62.742188 C 17.8125 60.484375 17.710938 58.0625 16.472656 56.070313 C 16.003906 55.265625 15.039063 55.027344 14.246094 54.660156 C 14.128906 56.152344 14.082031 57.652344 14.09375 59.148438 C 14.121094 69.761719 14.070313 80.375 14.117188 90.992188 C 11.28125 91.007813 8.449219 91.015625 5.613281 90.96875 C 5.59375 91.085938 5.558594 91.324219 5.539063 91.441406 C 3.855469 91.316406 2.164063 91.371094 0.476563 91.394531 C 0.0390625 85.824219 0.785156 80.179688 0 74.632813 C 0 73.613281 1.203125 73.089844 1.265625 72.101563 C 1.144531 70.980469 0.21875 70.070313 0.34375 68.894531 C 0.390625 46.089844 0.292969 23.277344 0.394531 0.46875 "/>
<path style=" stroke:none;fill-rule:nonzero;fill:rgb(92.89856%,11.799622%,14.099121%);fill-opacity:1;" d="M 38.546875 0.710938 C 39.25 0.398438 40.039063 0.492188 40.785156 0.46875 C 42.964844 0.519531 45.15625 0.339844 47.320313 0.6875 C 51.394531 0.246094 55.515625 0.585938 59.609375 0.472656 C 59.652344 2.480469 59.785156 4.488281 59.78125 6.496094 C 59.820313 9.316406 59.742188 12.140625 59.75 14.960938 C 57.195313 14.996094 54.640625 15.019531 52.089844 14.96875 C 52.082031 17.628906 52.226563 20.304688 51.882813 22.953125 C 51.71875 24.328125 52.070313 25.699219 52.085938 27.074219 C 52.140625 29.273438 52.085938 31.472656 52.082031 33.671875 C 53.3125 33.683594 54.539063 33.691406 55.769531 33.738281 C 57.066406 33.796875 58.367188 33.761719 59.664063 33.765625 C 59.644531 35.714844 59.613281 37.664063 59.691406 39.609375 C 59.777344 42.589844 59.699219 45.570313 59.742188 48.546875 C 57.183594 48.488281 54.632813 48.519531 52.078125 48.550781 C 52.117188 57.664063 52.09375 66.773438 52.089844 75.882813 C 53.324219 75.875 54.570313 75.898438 55.785156 76.15625 C 57.066406 76.300781 58.34375 75.832031 59.644531 75.953125 C 59.664063 77.949219 59.605469 79.945313 59.6875 81.941406 C 59.78125 84.957031 59.726563 87.976563 59.71875 90.996094 C 53.949219 91.003906 48.1875 91.019531 42.417969 90.976563 C 42.414063 91.085938 42.40625 91.300781 42.402344 91.402344 C 41.058594 91.351563 39.71875 91.375 38.378906 91.367188 C 37.980469 84.835938 38.480469 78.285156 38.238281 71.753906 C 38.25 57.105469 38.238281 42.457031 38.242188 27.804688 C 38.25 25.359375 38.195313 22.910156 38.355469 20.46875 C 38.132813 14.75 38.296875 9.027344 38.234375 3.304688 C 38.285156 2.445313 38.128906 1.5 38.546875 0.710938 "/>
<path style=" stroke:none;fill-rule:nonzero;fill:rgb(92.89856%,11.799622%,14.099121%);fill-opacity:1;" d="M 102.3125 0.480469 C 106.878906 0.507813 111.441406 0.390625 116.007813 0.476563 C 116.085938 2.472656 116.003906 4.472656 116.070313 6.46875 C 116.238281 17.421875 116.097656 28.378906 116.144531 39.332031 C 116.109375 56.550781 116.203125 73.769531 116.097656 90.984375 C 112.296875 91.011719 108.492188 91.023438 104.691406 90.964844 C 104.675781 91.078125 104.652344 91.3125 104.636719 91.433594 C 103.894531 91.382813 103.152344 91.371094 102.410156 91.371094 C 102.347656 90.722656 102.300781 90.070313 102.296875 89.421875 C 102.300781 64.554688 102.292969 39.6875 102.300781 14.820313 C 102.269531 13.398438 103.175781 12.023438 102.636719 10.613281 C 102.121094 9.070313 102.320313 7.429688 102.300781 5.835938 C 102.367188 4.050781 102.226563 2.265625 102.3125 0.480469 "/>
<path style=" stroke:none;fill-rule:nonzero;fill:rgb(92.89856%,11.799622%,14.099121%);fill-opacity:1;" d="M 136.742188 15.320313 C 136.695313 35.585938 136.742188 55.859375 136.71875 76.128906 C 137.160156 76.167969 137.597656 76.210938 138.046875 76.257813 C 138.863281 76.082031 139.894531 75.914063 140.203125 74.996094 C 140.773438 73.171875 140.414063 71.21875 140.714844 69.347656 C 140.890625 68.355469 140.613281 67.363281 140.605469 66.371094 C 140.5625 51.328125 140.652344 36.277344 140.558594 21.234375 C 140.648438 19.601563 140.71875 17.882813 140.140625 16.328125 C 139.566406 14.96875 137.90625 15.363281 136.742188 15.320313 Z M 122.933594 0.484375 C 130.375 0.546875 137.832031 0.273438 145.273438 0.761719 C 147.570313 0.929688 150.132813 1.5625 151.441406 3.648438 C 153.734375 6.613281 154.128906 10.449219 154.4375 14.058594 C 154.808594 24.042969 154.621094 34.03125 154.664063 44.015625 C 154.609375 55.074219 154.8125 66.128906 154.492188 77.179688 C 154.363281 80.925781 153.902344 85 151.394531 87.96875 C 149.269531 90.421875 145.800781 90.761719 142.765625 90.785156 C 136.867188 91.175781 130.953125 90.839844 125.058594 91.09375 C 124.941406 91.132813 124.699219 91.214844 124.578125 91.253906 C 124.074219 91.433594 123.53125 91.355469 123.007813 91.382813 C 122.726563 82.679688 123.015625 73.960938 122.914063 65.25 C 122.808594 64.308594 123.164063 63.457031 123.585938 62.644531 C 124.125 61.292969 122.742188 60.167969 122.917969 58.816406 C 122.945313 47.632813 122.867188 36.453125 122.902344 25.265625 C 122.8125 24.554688 123.164063 23.960938 123.613281 23.445313 C 123.261719 22.914063 122.78125 22.390625 122.863281 21.699219 C 122.832031 14.628906 122.832031 7.554688 122.933594 0.484375 "/>
<path style=" stroke:none;fill-rule:nonzero;fill:rgb(92.89856%,11.799622%,14.099121%);fill-opacity:1;" d="M 161.023438 0.484375 C 165.253906 0.511719 169.484375 0.386719 173.714844 0.476563 C 174.523438 0.46875 175.230469 1.367188 176.035156 0.933594 C 178.023438 0.0820313 180.242188 0.625 182.335938 0.476563 C 182.34375 2.761719 182.296875 5.050781 182.46875 7.332031 C 182.609375 9.875 182.277344 12.421875 182.453125 14.964844 C 179.929688 15.003906 177.402344 15.007813 174.882813 14.972656 C 174.628906 19.488281 174.785156 24.007813 174.734375 28.527344 C 174.738281 30.257813 174.585938 32.027344 175.039063 33.726563 C 177.472656 33.847656 179.910156 33.726563 182.34375 33.773438 C 182.332031 35.625 182.324219 37.476563 182.40625 39.324219 C 182.464844 42.382813 182.421875 45.445313 182.417969 48.503906 C 179.90625 48.53125 177.394531 48.546875 174.886719 48.496094 C 174.617188 53.601563 174.785156 58.71875 174.738281 63.832031 C 174.78125 67.855469 174.648438 71.886719 174.804688 75.90625 L 175.105469 75.9375 C 177.515625 76.042969 179.933594 75.953125 182.34375 75.972656 C 182.324219 77.804688 182.332031 79.632813 182.417969 81.460938 C 182.453125 84.632813 182.425781 87.808594 182.417969 90.980469 C 175.433594 91.070313 168.445313 90.902344 161.460938 91.070313 L 161.03125 91.089844 C 160.898438 86.328125 161.011719 81.558594 160.96875 76.792969 C 160.914063 75.789063 161.167969 74.820313 161.375 73.851563 C 161.445313 72.78125 160.949219 71.757813 160.980469 70.6875 C 160.964844 48.347656 160.980469 26.007813 160.972656 3.667969 C 160.96875 2.605469 160.980469 1.546875 161.023438 0.484375 "/>
<path style=" stroke:none;fill-rule:nonzero;fill:rgb(92.89856%,11.799622%,14.099121%);fill-opacity:1;" d="M 188.234375 0.507813 C 192.679688 0.4375 197.132813 0.511719 201.582031 0.46875 C 202.835938 9.125 204.003906 17.792969 205.238281 26.453125 C 205.941406 31.03125 206.375 35.65625 207.308594 40.191406 C 207.410156 41.921875 207.710938 43.625 207.917969 45.339844 C 207.953125 45.339844 208.03125 45.34375 208.066406 45.34375 C 207.996094 35.15625 208.101563 24.964844 208.011719 14.777344 C 207.992188 14.390625 207.976563 14 207.96875 13.613281 C 207.976563 12.136719 208.097656 10.65625 208.460938 9.222656 C 208.746094 8.234375 208.261719 7.273438 208.050781 6.324219 C 207.960938 4.464844 208.03125 2.597656 208.117188 0.742188 C 208.644531 0.605469 209.171875 0.4375 209.730469 0.441406 C 213.117188 0.496094 216.503906 0.484375 219.890625 0.464844 C 219.894531 30.117188 219.890625 59.773438 219.894531 89.429688 C 219.878906 90.089844 219.773438 90.742188 219.652344 91.386719 C 219.488281 91.335938 219.164063 91.238281 219.003906 91.1875 C 217.976563 90.953125 216.917969 90.996094 215.871094 90.984375 C 212.527344 91.011719 209.175781 91.019531 205.828125 90.976563 C 203.894531 76.855469 201.890625 62.742188 199.914063 48.632813 C 199.765625 51.617188 199.800781 54.613281 199.902344 57.597656 C 199.550781 68.742188 199.855469 79.890625 199.726563 91.035156 L 199.425781 91.027344 C 195.707031 90.96875 191.992188 91.023438 188.273438 90.992188 C 188.191406 84.542969 188.3125 78.101563 188.214844 71.652344 C 188.242188 69.957031 188.132813 68.257813 188.246094 66.566406 C 188.578125 65.679688 189.097656 64.808594 189.070313 63.835938 C 188.960938 62.988281 188.542969 62.21875 188.234375 61.429688 C 188.039063 47.691406 188.226563 33.925781 188.160156 20.183594 C 188.199219 19.921875 188.273438 19.402344 188.316406 19.140625 C 188.644531 18.347656 188.664063 17.460938 188.316406 16.664063 C 187.898438 13.804688 188.339844 10.878906 188.164063 7.992188 C 188.011719 6.351563 188.59375 4.730469 188.347656 3.097656 C 188.226563 2.234375 188.214844 1.371094 188.234375 0.507813 "/>
<path style=" stroke:none;fill-rule:nonzero;fill:rgb(92.89856%,11.799622%,14.099121%);fill-opacity:1;" d="M 223.746094 0.46875 C 228.9375 0.492188 234.128906 0.46875 239.316406 0.472656 C 240.167969 0.445313 240.980469 0.726563 241.785156 0.984375 C 242.265625 0.800781 242.734375 0.527344 243.261719 0.492188 C 245.921875 0.355469 248.585938 0.492188 251.25 0.523438 C 251.3125 4.695313 251.222656 8.871094 251.238281 13.042969 C 251.210938 13.828125 251.308594 14.691406 250.828125 15.371094 C 250.378906 15.375 249.929688 15.339844 249.492188 15.269531 C 247.835938 15.007813 246.152344 15.015625 244.484375 15.117188 C 244.46875 17.058594 244.503906 19.003906 244.429688 20.941406 C 244.328125 41.242188 244.414063 61.542969 244.386719 81.84375 C 244.308594 85.003906 244.566406 88.175781 244.210938 91.320313 C 243.71875 91.363281 243.222656 91.40625 242.738281 91.460938 C 242.730469 91.339844 242.71875 91.101563 242.710938 90.980469 C 238.671875 91.003906 234.636719 91.015625 230.597656 90.988281 C 230.582031 65.707031 230.578125 40.421875 230.601563 15.136719 C 228.289063 15.132813 225.980469 15.109375 223.671875 15.144531 C 223.65625 12.261719 223.628906 9.375 223.671875 6.488281 C 223.726563 4.484375 223.65625 2.472656 223.746094 0.46875 "/>
<path style=" stroke:none;fill-rule:nonzero;fill:rgb(92.89856%,11.799622%,14.099121%);fill-opacity:1;" d="M 262.367188 0.496094 C 269.472656 0.453125 276.574219 0.5 283.679688 0.46875 C 283.679688 2.476563 283.628906 4.488281 283.71875 6.496094 C 283.785156 8.609375 283.804688 10.722656 283.945313 12.835938 C 283.804688 13.59375 283.714844 14.359375 283.625 15.125 C 282.78125 15.34375 281.894531 15.449219 281.035156 15.324219 C 280.945313 15.246094 280.765625 15.101563 280.675781 15.027344 C 279.164063 14.925781 277.65625 15.007813 276.148438 14.972656 C 276.148438 16.9375 276.175781 18.902344 276.097656 20.867188 C 276.042969 25.164063 276.050781 29.464844 276.089844 33.765625 C 278.617188 33.777344 281.144531 33.773438 283.675781 33.765625 C 283.671875 37.0625 283.667969 40.359375 283.671875 43.65625 C 283.660156 45.382813 283.769531 47.121094 283.484375 48.832031 C 282.636719 48.851563 281.789063 48.859375 280.953125 48.917969 C 280.941406 48.8125 280.917969 48.597656 280.90625 48.496094 C 279.320313 48.503906 277.734375 48.535156 276.148438 48.503906 C 276.148438 50.390625 276.175781 52.277344 276.109375 54.160156 C 276.011719 55.828125 276.105469 57.5 276.050781 59.164063 C 276.035156 60.027344 275.480469 60.746094 275.347656 61.582031 C 275.609375 62.195313 276.101563 62.746094 276.046875 63.457031 C 276.105469 67.628906 276.039063 71.800781 276.074219 75.96875 C 278.597656 76.007813 281.128906 75.933594 283.652344 76.035156 C 283.703125 80.132813 283.644531 84.226563 283.683594 88.324219 C 283.699219 89.339844 283.632813 90.359375 283.445313 91.359375 C 282.613281 91.371094 281.777344 91.375 280.953125 91.425781 C 280.941406 91.3125 280.921875 91.089844 280.910156 90.980469 C 279.09375 90.980469 277.15625 91.261719 275.503906 90.320313 C 274.40625 90.714844 273.269531 91.070313 272.089844 91.023438 C 268.816406 90.996094 265.542969 91.007813 262.269531 90.984375 C 262.265625 69.199219 262.28125 47.40625 262.261719 25.621094 C 262.234375 24.40625 262.757813 23.300781 263.132813 22.175781 C 263.734375 20.617188 262.1875 19.304688 262.277344 17.746094 C 262.242188 13.996094 262.277344 10.242188 262.285156 6.488281 C 262.339844 4.492188 262.253906 2.492188 262.367188 0.496094 "/>
<path style=" stroke:none;fill-rule:nonzero;fill:rgb(92.89856%,11.799622%,14.099121%);fill-opacity:1;" d="M 286.511719 0.492188 C 290.839844 0.46875 295.175781 0.46875 299.507813 0.492188 C 299.742188 6.148438 300.078125 11.800781 300.316406 17.453125 C 300.378906 19.011719 300.609375 20.589844 300.300781 22.144531 C 300.089844 22.980469 300.5625 23.765625 300.671875 24.582031 C 300.816406 25.734375 300.777344 26.902344 300.800781 28.0625 C 300.867188 28.011719 300.988281 27.90625 301.050781 27.855469 C 301.046875 34.445313 301.675781 41.015625 301.867188 47.597656 C 302.222656 51.339844 302.058594 55.117188 302.503906 58.851563 C 303.484375 41.410156 304.351563 23.957031 305.289063 6.511719 C 305.453125 4.507813 305.554688 2.503906 305.628906 0.5 C 309.949219 0.453125 314.269531 0.484375 318.59375 0.480469 C 315.726563 28.785156 312.9375 57.105469 310.03125 85.40625 C 309.820313 87.398438 309.695313 89.402344 309.324219 91.371094 C 308.382813 91.371094 307.441406 91.367188 306.503906 91.402344 C 306.503906 91.300781 306.507813 91.089844 306.507813 90.980469 C 302.339844 91 298.171875 91.023438 294.003906 90.980469 C 292.796875 75.613281 291.445313 60.257813 290.167969 44.890625 C 290.023438 43.171875 289.789063 41.453125 289.828125 39.722656 C 289.839844 38.582031 290.300781 37.417969 289.929688 36.289063 C 289.570313 35.207031 289.203125 34.109375 289.132813 32.960938 C 288.433594 24.136719 287.652344 15.316406 286.910156 6.488281 C 286.742188 4.496094 286.496094 2.5 286.511719 0.492188 "/>
<path style=" stroke:none;fill-rule:nonzero;fill:rgb(92.89856%,11.799622%,14.099121%);fill-opacity:1;" d="M 322.417969 0.472656 C 326.992188 0.488281 331.5625 0.46875 336.136719 0.484375 C 336.160156 30.132813 336.132813 59.78125 336.148438 89.429688 C 336.152344 90.09375 336.046875 90.75 335.894531 91.394531 C 334.542969 91.363281 333.183594 91.332031 331.835938 91.4375 C 331.8125 91.320313 331.765625 91.085938 331.738281 90.96875 C 328.609375 91.015625 325.480469 91.003906 322.351563 90.996094 C 322.308594 84.339844 322.351563 77.683594 322.320313 71.023438 C 322.230469 69.53125 322.957031 68.167969 323.113281 66.714844 C 322.929688 65.382813 322.273438 64.132813 322.324219 62.765625 C 322.34375 44.007813 322.320313 25.25 322.339844 6.488281 C 322.378906 4.484375 322.304688 2.476563 322.417969 0.472656 "/>
<path style=" stroke:none;fill-rule:nonzero;fill:rgb(92.89856%,11.799622%,14.099121%);fill-opacity:1;" d="M 342.980469 0.488281 C 347.550781 0.464844 352.121094 0.488281 356.691406 0.472656 C 356.695313 25.589844 356.695313 50.707031 356.691406 75.820313 C 359.355469 75.875 362.019531 75.808594 364.683594 75.871094 C 365.101563 77.097656 364.980469 78.40625 364.988281 79.683594 C 364.96875 82.808594 364.964844 85.929688 364.984375 89.058594 C 364.980469 89.820313 365.007813 90.605469 364.753906 91.335938 C 363.074219 91.867188 361.71875 90.339844 360.070313 90.707031 C 357.660156 91.140625 355.203125 90.988281 352.769531 91 C 349.484375 91 346.199219 91.011719 342.917969 90.988281 C 342.917969 62.820313 342.890625 34.65625 342.933594 6.488281 C 342.980469 4.492188 342.933594 2.492188 342.980469 0.488281 "/>
<path style=" stroke:none;fill-rule:nonzero;fill:rgb(0.799561%,0.799561%,0.799561%);fill-opacity:1;" d="M 59.78125 6.496094 C 60.902344 6.496094 62.023438 6.5 63.148438 6.496094 C 63.40625 11.277344 63.242188 16.066406 63.171875 20.847656 C 60.707031 20.820313 58.238281 20.828125 55.769531 20.84375 C 55.578125 23.773438 56.152344 26.789063 55.375 29.65625 C 55.765625 30.988281 55.820313 32.359375 55.769531 33.738281 C 54.539063 33.691406 53.3125 33.683594 52.082031 33.671875 C 52.085938 31.472656 52.140625 29.273438 52.085938 27.074219 C 52.070313 25.699219 51.71875 24.328125 51.882813 22.953125 C 52.226563 20.304688 52.082031 17.628906 52.089844 14.96875 C 54.640625 15.019531 57.195313 14.996094 59.75 14.960938 C 59.742188 12.140625 59.820313 9.316406 59.78125 6.496094 "/>
<g clip-path="url(#clip1)" clip-rule="nonzero">
<path style=" stroke:none;fill-rule:nonzero;fill:rgb(0.799561%,0.799561%,0.799561%);fill-opacity:1;" d="M 116.070313 6.46875 C 116.695313 6.460938 117.320313 6.460938 117.949219 6.460938 C 118.03125 36.46875 117.949219 66.476563 117.988281 96.484375 C 113.527344 96.464844 109.066406 96.488281 104.613281 96.476563 C 104.609375 94.792969 104.558594 93.109375 104.636719 91.433594 C 104.652344 91.3125 104.675781 91.078125 104.691406 90.964844 C 108.492188 91.023438 112.296875 91.011719 116.097656 90.984375 C 116.203125 73.769531 116.109375 56.550781 116.144531 39.332031 C 116.097656 28.378906 116.238281 17.421875 116.070313 6.46875 "/>
</g>
<path style=" stroke:none;fill-rule:nonzero;fill:rgb(0.799561%,0.799561%,0.799561%);fill-opacity:1;" d="M 207.503906 6.929688 C 207.640625 6.777344 207.910156 6.476563 208.050781 6.324219 C 208.261719 7.273438 208.746094 8.234375 208.460938 9.222656 C 208.097656 10.65625 207.976563 12.136719 207.96875 13.613281 C 207.203125 12.902344 207.445313 11.808594 207.429688 10.882813 C 207.5 9.5625 207.402344 8.246094 207.503906 6.929688 "/>
<g clip-path="url(#clip2)" clip-rule="nonzero">
<path style=" stroke:none;fill-rule:nonzero;fill:rgb(0.799561%,0.799561%,0.799561%);fill-opacity:1;" d="M 222.640625 6.496094 C 222.898438 6.492188 223.414063 6.492188 223.671875 6.488281 C 223.628906 9.375 223.65625 12.261719 223.671875 15.144531 C 225.980469 15.109375 228.289063 15.132813 230.601563 15.136719 C 230.578125 40.421875 230.582031 65.707031 230.597656 90.988281 C 234.636719 91.015625 238.671875 91.003906 242.710938 90.980469 C 242.71875 91.101563 242.730469 91.339844 242.738281 91.460938 C 242.75 93.140625 242.734375 94.820313 242.726563 96.503906 C 238.28125 96.445313 233.839844 96.484375 229.398438 96.484375 C 229.375 71.320313 229.425781 46.152344 229.367188 20.988281 C 227.125 20.964844 224.878906 20.96875 222.636719 20.988281 C 222.640625 16.15625 222.640625 11.324219 222.640625 6.496094 "/>
</g>
<g clip-path="url(#clip3)" clip-rule="nonzero">
<path style=" stroke:none;fill-rule:nonzero;fill:rgb(0.799561%,0.799561%,0.799561%);fill-opacity:1;" d="M 260.144531 6.503906 C 260.855469 6.5 261.566406 6.492188 262.285156 6.488281 C 262.277344 10.242188 262.242188 13.996094 262.277344 17.746094 C 262.1875 19.304688 263.734375 20.617188 263.132813 22.175781 C 262.757813 23.300781 262.234375 24.40625 262.261719 25.621094 C 262.28125 47.40625 262.265625 69.199219 262.269531 90.984375 C 265.542969 91.007813 268.816406 90.996094 272.089844 91.023438 C 273.269531 91.070313 274.40625 90.714844 275.503906 90.320313 C 277.15625 91.261719 279.09375 90.980469 280.910156 90.980469 C 280.921875 91.089844 280.941406 91.3125 280.953125 91.425781 C 281.011719 93.109375 280.96875 94.789063 280.960938 96.476563 C 278.855469 96.472656 276.746094 96.492188 274.640625 96.476563 C 273.753906 96.628906 273.074219 95.242188 272.257813 96.011719 C 271.496094 96.644531 270.480469 96.464844 269.5625 96.484375 C 266.449219 96.476563 263.332031 96.464844 260.214844 96.492188 C 260.058594 87.886719 260.191406 79.28125 260.148438 70.675781 C 260.152344 57.339844 260.136719 44.003906 260.15625 30.667969 C 260.132813 29.46875 261.15625 28.570313 261.171875 27.375 C 261.40625 26.167969 260.089844 25.398438 260.15625 24.222656 C 260.128906 18.316406 260.15625 12.410156 260.144531 6.503906 "/>
</g>
<g clip-path="url(#clip4)" clip-rule="nonzero">
<path style=" stroke:none;fill-rule:nonzero;fill:rgb(0.799561%,0.799561%,0.799561%);fill-opacity:1;" d="M 283.71875 6.496094 C 284.78125 6.5 285.84375 6.5 286.910156 6.488281 C 287.652344 15.316406 288.433594 24.136719 289.132813 32.960938 C 289.203125 34.109375 289.570313 35.207031 289.929688 36.289063 C 290.300781 37.417969 289.839844 38.582031 289.828125 39.722656 C 289.789063 41.453125 290.023438 43.171875 290.167969 44.890625 C 291.445313 60.257813 292.796875 75.613281 294.003906 90.980469 C 298.171875 91.023438 302.339844 91 306.507813 90.980469 C 306.507813 91.089844 306.503906 91.300781 306.503906 91.402344 C 306.382813 93.101563 306.214844 94.796875 306.015625 96.488281 C 301.039063 96.402344 296.027344 96.605469 291.074219 96.394531 C 289.589844 79.789063 288.304688 63.167969 286.890625 46.554688 C 286.707031 45.324219 287.117188 44.144531 287.253906 42.9375 C 287.351563 41.886719 286.335938 41.140625 286.378906 40.097656 C 285.714844 32.121094 285.085938 24.136719 284.417969 16.164063 C 284.296875 15.046875 284.179688 13.929688 283.945313 12.835938 C 283.804688 10.722656 283.785156 8.609375 283.71875 6.496094 "/>
</g>
<path style=" stroke:none;fill-rule:nonzero;fill:rgb(0.799561%,0.799561%,0.799561%);fill-opacity:1;" d="M 302.265625 6.5 C 303.269531 6.496094 304.277344 6.496094 305.289063 6.511719 C 304.351563 23.957031 303.484375 41.410156 302.503906 58.851563 C 302.058594 55.117188 302.222656 51.339844 301.867188 47.597656 C 301.675781 41.015625 301.046875 34.445313 301.050781 27.855469 C 301.636719 20.753906 301.867188 13.621094 302.265625 6.5 "/>
<g clip-path="url(#clip5)" clip-rule="nonzero">
<path style=" stroke:none;fill-rule:nonzero;fill:rgb(0.799561%,0.799561%,0.799561%);fill-opacity:1;" d="M 318.410156 6.507813 C 319.71875 6.492188 321.027344 6.503906 322.339844 6.488281 C 322.320313 25.25 322.34375 44.007813 322.324219 62.765625 C 322.273438 64.132813 322.929688 65.382813 323.113281 66.714844 C 322.957031 68.167969 322.230469 69.53125 322.320313 71.023438 C 322.351563 77.683594 322.308594 84.339844 322.351563 90.996094 C 325.480469 91.003906 328.609375 91.015625 331.738281 90.96875 C 331.765625 91.085938 331.8125 91.320313 331.835938 91.4375 C 332.015625 93.113281 331.867188 94.808594 331.824219 96.492188 C 327.410156 96.46875 323 96.464844 318.585938 96.492188 C 318.402344 89.808594 318.5625 83.113281 318.5 76.429688 C 318.425781 75.269531 318.804688 74.171875 319.222656 73.117188 C 319.773438 71.761719 318.433594 70.621094 318.527344 69.261719 C 318.476563 56.523438 318.523438 43.785156 318.507813 31.046875 C 318.453125 22.867188 318.621094 14.683594 318.410156 6.507813 "/>
</g>
<g clip-path="url(#clip6)" clip-rule="nonzero">
<path style=" stroke:none;fill-rule:nonzero;fill:rgb(0.799561%,0.799561%,0.799561%);fill-opacity:1;" d="M 338.546875 6.503906 C 340.007813 6.496094 341.46875 6.503906 342.933594 6.488281 C 342.890625 34.65625 342.917969 62.820313 342.917969 90.988281 C 346.199219 91.011719 349.484375 91 352.769531 91 C 355.203125 90.988281 357.660156 91.140625 360.070313 90.707031 C 359.945313 92.636719 360.042969 94.566406 359.996094 96.492188 C 358.957031 96.429688 357.828125 96.691406 356.898438 96.101563 C 355.75 95.347656 354.640625 96.53125 353.472656 96.480469 C 348.5 96.492188 343.53125 96.441406 338.558594 96.5 C 338.53125 66.503906 338.554688 36.503906 338.546875 6.503906 "/>
</g>
<path style=" stroke:none;fill-rule:nonzero;fill:rgb(0.799561%,0.799561%,0.799561%);fill-opacity:1;" d="M 31.027344 7.882813 C 33.457031 8.875 34.738281 11.410156 35.28125 13.839844 C 36.253906 18.179688 36.136719 22.664063 36.152344 27.085938 C 36.117188 32.625 36.328125 38.199219 35.570313 43.703125 C 35.160156 46.910156 33.929688 50.546875 30.65625 51.839844 C 29.828125 49.496094 28.171875 47.539063 26.003906 46.324219 C 27.539063 45.488281 29.078125 44.441406 29.855469 42.808594 C 31.566406 39.402344 31.601563 35.484375 31.839844 31.765625 C 31.933594 27.203125 31.847656 22.640625 31.886719 18.078125 C 31.890625 14.667969 31.792969 11.222656 31.027344 7.882813 "/>
<path style=" stroke:none;fill-rule:nonzero;fill:rgb(0.799561%,0.799561%,0.799561%);fill-opacity:1;" d="M 95.917969 9.28125 C 98.066406 11.929688 98.480469 15.476563 98.636719 18.765625 C 98.890625 24.933594 98.691406 31.113281 98.761719 37.285156 C 96.71875 37.140625 94.457031 37.800781 92.660156 36.539063 C 90.996094 37.855469 88.863281 37.148438 86.945313 37.457031 C 86.398438 37.015625 85.832031 36.597656 85.265625 36.183594 C 85.316406 34.734375 85.316406 33.277344 85.25 31.824219 C 87.394531 31.726563 89.515625 30.769531 91.664063 31.355469 C 93.183594 31.640625 94.742188 31.558594 96.28125 31.53125 C 96.265625 24.117188 96.507813 16.679688 95.917969 9.28125 "/>
<g clip-path="url(#clip7)" clip-rule="nonzero">
<path style=" stroke:none;fill-rule:nonzero;fill:rgb(0.799561%,0.799561%,0.799561%);fill-opacity:1;" d="M 154.4375 14.058594 C 155.300781 17.234375 155.335938 20.570313 155.390625 23.847656 C 155.484375 34.890625 155.410156 45.941406 155.433594 56.984375 C 155.398438 65.640625 155.523438 74.296875 155.339844 82.949219 C 155.136719 86.769531 154.679688 90.984375 151.925781 93.898438 C 149.210938 96.496094 145.148438 96.28125 141.664063 96.34375 C 136.003906 96.558594 130.335938 96.429688 124.675781 96.503906 C 124.664063 94.753906 124.726563 93.003906 124.578125 91.253906 C 124.699219 91.214844 124.941406 91.132813 125.058594 91.09375 C 130.953125 90.839844 136.867188 91.175781 142.765625 90.785156 C 145.800781 90.761719 149.269531 90.421875 151.394531 87.96875 C 153.902344 85 154.363281 80.925781 154.492188 77.179688 C 154.8125 66.128906 154.609375 55.074219 154.664063 44.015625 C 154.621094 34.03125 154.808594 24.042969 154.4375 14.058594 "/>
</g>
<path style=" stroke:none;fill-rule:nonzero;fill:rgb(0.799561%,0.799561%,0.799561%);fill-opacity:1;" d="M 78.945313 15.886719 C 79.328125 14.929688 80.726563 14.191406 81.480469 15.199219 C 82.832031 16.832031 82.386719 19.144531 82.355469 21.101563 C 80.910156 23.097656 82.109375 25.789063 80.753906 27.777344 C 81.851563 29.417969 81.375 31.445313 81.441406 33.296875 C 80.289063 32.402344 79.058594 31.375 78.710938 29.886719 C 78.054688 27.242188 78.992188 24.394531 77.828125 21.847656 C 78.792969 19.984375 78.160156 17.789063 78.945313 15.886719 "/>
<path style=" stroke:none;fill-rule:nonzero;fill:rgb(0.799561%,0.799561%,0.799561%);fill-opacity:1;" d="M 174.882813 14.972656 C 177.402344 15.007813 179.929688 15.003906 182.453125 14.964844 C 182.460938 16.917969 182.445313 18.875 182.503906 20.832031 C 180.027344 20.847656 177.550781 20.800781 175.074219 20.855469 C 175.054688 25.148438 175.128906 29.4375 175.039063 33.726563 C 174.585938 32.027344 174.738281 30.257813 174.734375 28.527344 C 174.785156 24.007813 174.628906 19.488281 174.882813 14.972656 "/>
<path style=" stroke:none;fill-rule:nonzero;fill:rgb(0.799561%,0.799561%,0.799561%);fill-opacity:1;" d="M 208.011719 14.777344 C 208.101563 24.964844 207.996094 35.15625 208.066406 45.34375 C 208.03125 45.34375 207.953125 45.339844 207.917969 45.339844 C 207.710938 43.625 207.410156 41.921875 207.308594 40.191406 C 207.570313 32.378906 207.332031 24.550781 207.4375 16.726563 C 207.488281 16.042969 207.816406 15.425781 208.011719 14.777344 "/>
<path style=" stroke:none;fill-rule:nonzero;fill:rgb(0.799561%,0.799561%,0.799561%);fill-opacity:1;" d="M 276.148438 14.972656 C 277.65625 15.007813 279.164063 14.925781 280.675781 15.027344 C 280.765625 15.101563 280.945313 15.246094 281.035156 15.324219 C 280.9375 17.152344 280.984375 18.988281 280.980469 20.820313 C 279.351563 20.847656 277.722656 20.804688 276.097656 20.867188 C 276.175781 18.902344 276.148438 16.9375 276.148438 14.972656 "/>
<path style=" stroke:none;fill-rule:nonzero;fill:rgb(0.799561%,0.799561%,0.799561%);fill-opacity:1;" d="M 14.171875 15.234375 C 15.042969 15.285156 15.933594 15.238281 16.785156 15.460938 C 17.539063 15.789063 17.839844 16.664063 17.917969 17.425781 C 18.289063 22.320313 18.171875 27.226563 18.1875 32.128906 C 18.121094 33.78125 18.175781 35.5 17.648438 37.085938 C 17.113281 38.492188 15.375 38.261719 14.167969 38.363281 C 14.058594 30.65625 14.050781 22.9375 14.171875 15.234375 "/>
<path style=" stroke:none;fill-rule:nonzero;fill:rgb(0.799561%,0.799561%,0.799561%);fill-opacity:1;" d="M 136.742188 15.320313 C 137.90625 15.363281 139.566406 14.96875 140.140625 16.328125 C 140.71875 17.882813 140.648438 19.601563 140.558594 21.234375 C 139.738281 21.207031 138.921875 21.210938 138.105469 21.242188 C 137.976563 39.578125 138.09375 57.917969 138.046875 76.257813 C 137.597656 76.210938 137.160156 76.167969 136.71875 76.128906 C 136.742188 55.859375 136.695313 35.585938 136.742188 15.320313 "/>
<path style=" stroke:none;fill-rule:nonzero;fill:rgb(0.799561%,0.799561%,0.799561%);fill-opacity:1;" d="M 244.484375 15.117188 C 246.152344 15.015625 247.835938 15.007813 249.492188 15.269531 C 249.386719 17.152344 249.488281 19.046875 249.273438 20.929688 C 247.65625 20.976563 246.042969 20.945313 244.429688 20.941406 C 244.503906 19.003906 244.46875 17.058594 244.484375 15.117188 "/>
<path style=" stroke:none;fill-rule:nonzero;fill:rgb(0.799561%,0.799561%,0.799561%);fill-opacity:1;" d="M 188.316406 16.664063 C 188.664063 17.460938 188.644531 18.347656 188.316406 19.140625 C 187.933594 18.46875 187.929688 17.332031 188.316406 16.664063 "/>
<path style=" stroke:none;fill-rule:nonzero;fill:rgb(0.799561%,0.799561%,0.799561%);fill-opacity:1;" d="M 182.40625 39.324219 C 182.617188 44.257813 182.414063 49.203125 182.488281 54.148438 C 180.019531 54.191406 177.546875 54.128906 175.074219 54.183594 C 175.097656 61.433594 175.039063 68.6875 175.105469 75.9375 L 174.804688 75.90625 C 174.648438 71.886719 174.78125 67.855469 174.738281 63.832031 C 174.785156 58.71875 174.617188 53.601563 174.886719 48.496094 C 177.394531 48.546875 179.90625 48.53125 182.417969 48.503906 C 182.421875 45.445313 182.464844 42.382813 182.40625 39.324219 "/>
<path style=" stroke:none;fill-rule:nonzero;fill:rgb(0.799561%,0.799561%,0.799561%);fill-opacity:1;" d="M 59.691406 39.609375 C 60.851563 39.589844 62.011719 39.597656 63.171875 39.589844 C 63.175781 44.449219 63.164063 49.304688 63.175781 54.164063 C 60.710938 54.164063 58.246094 54.152344 55.785156 54.171875 C 55.742188 61.5 55.738281 68.828125 55.785156 76.15625 C 54.570313 75.898438 53.324219 75.875 52.089844 75.882813 C 52.09375 66.773438 52.117188 57.664063 52.078125 48.550781 C 54.632813 48.519531 57.183594 48.488281 59.742188 48.546875 C 59.699219 45.570313 59.777344 42.589844 59.691406 39.609375 "/>
<path style=" stroke:none;fill-rule:nonzero;fill:rgb(0.799561%,0.799561%,0.799561%);fill-opacity:1;" d="M 68.882813 43.621094 C 70.234375 44.6875 71.5 45.859375 72.867188 46.90625 C 74.09375 47.859375 75.605469 48.425781 76.640625 49.617188 C 77.980469 51.066406 79.796875 51.957031 81.15625 53.382813 C 82.238281 54.476563 82.285156 56.105469 82.316406 57.550781 C 80.789063 56.636719 79.445313 55.453125 78.492188 53.9375 C 78.210938 53.417969 77.554688 53.5625 77.070313 53.503906 C 75.03125 51.710938 72.753906 50.132813 71.113281 47.9375 C 70.101563 46.648438 69.484375 45.125 68.882813 43.621094 "/>
<path style=" stroke:none;fill-rule:nonzero;fill:rgb(0.799561%,0.799561%,0.799561%);fill-opacity:1;" d="M 276.148438 48.503906 C 277.734375 48.535156 279.320313 48.503906 280.90625 48.496094 C 280.917969 48.597656 280.941406 48.8125 280.953125 48.917969 C 281.019531 50.664063 280.953125 52.414063 280.984375 54.160156 C 279.359375 54.160156 277.734375 54.160156 276.109375 54.160156 C 276.175781 52.277344 276.148438 50.390625 276.148438 48.503906 "/>
<g clip-path="url(#clip8)" clip-rule="nonzero">
<path style=" stroke:none;fill-rule:nonzero;fill:rgb(0.799561%,0.799561%,0.799561%);fill-opacity:1;" d="M 199.914063 48.632813 C 201.890625 62.742188 203.894531 76.855469 205.828125 90.976563 C 209.175781 91.019531 212.527344 91.011719 215.871094 90.984375 C 216.917969 90.996094 217.976563 90.953125 219.003906 91.1875 C 218.921875 92.957031 218.976563 94.730469 218.953125 96.5 C 214.40625 96.414063 209.855469 96.554688 205.316406 96.433594 C 203.425781 83.503906 201.910156 70.511719 199.902344 57.597656 C 199.800781 54.613281 199.765625 51.617188 199.914063 48.632813 "/>
</g>
<g clip-path="url(#clip9)" clip-rule="nonzero">
<path style=" stroke:none;fill-rule:nonzero;fill:rgb(0.799561%,0.799561%,0.799561%);fill-opacity:1;" d="M 95.855469 49.277344 C 97.308594 50.925781 97.902344 53.136719 98.273438 55.257813 C 98.734375 58.453125 98.78125 61.691406 98.757813 64.910156 C 98.734375 70.800781 98.800781 76.6875 98.722656 82.578125 C 98.578125 85.097656 98.542969 87.691406 97.664063 90.097656 C 97.371094 90.925781 96.625 91.507813 96.34375 92.335938 C 95.921875 94.21875 94.105469 95.410156 92.367188 95.933594 C 88.953125 96.878906 85.371094 96.667969 81.867188 96.710938 C 79.136719 96.671875 76.296875 96.777344 73.707031 95.777344 C 71.082031 94.683594 69.84375 91.917969 68.839844 89.453125 C 70.15625 90.183594 71.582031 90.742188 73.082031 90.9375 C 77.722656 91.507813 82.417969 91.371094 87.0625 90.964844 C 88.839844 90.75 90.6875 90.34375 92.128906 89.21875 C 93.371094 88.21875 93.925781 86.671875 94.71875 85.332031 C 95.753906 83.511719 96 81.386719 96.125 79.332031 C 96.378906 74.167969 96.289063 68.996094 96.304688 63.832031 C 96.300781 58.976563 96.363281 54.105469 95.855469 49.277344 "/>
</g>
<g clip-path="url(#clip10)" clip-rule="nonzero">
<path style=" stroke:none;fill-rule:nonzero;fill:rgb(0.799561%,0.799561%,0.799561%);fill-opacity:1;" d="M 30.9375 52.582031 C 33.519531 53.789063 34.734375 56.613281 35.402344 59.222656 C 36.128906 62.503906 36.046875 65.894531 36.140625 69.234375 C 36.152344 78.316406 36.175781 87.402344 36.125 96.484375 C 31.699219 96.464844 27.269531 96.492188 22.84375 96.46875 C 22.832031 94.792969 22.789063 93.113281 22.863281 91.441406 C 22.875 91.320313 22.902344 91.085938 22.914063 90.972656 C 25.898438 91.015625 28.886719 91.007813 31.875 90.988281 C 31.890625 82.296875 31.875 73.605469 31.882813 64.910156 C 31.84375 60.792969 31.957031 56.605469 30.9375 52.582031 "/>
</g>
<g clip-path="url(#clip11)" clip-rule="nonzero">
<path style=" stroke:none;fill-rule:nonzero;fill:rgb(0.799561%,0.799561%,0.799561%);fill-opacity:1;" d="M 14.246094 54.660156 C 15.039063 55.027344 16.003906 55.265625 16.472656 56.070313 C 17.710938 58.0625 17.8125 60.484375 18.160156 62.742188 C 18.503906 64.898438 18.136719 67.070313 18.175781 69.234375 C 18.214844 76.488281 18.152344 83.746094 18.207031 90.996094 C 18.394531 91.082031 18.765625 91.257813 18.953125 91.347656 C 18.867188 93.0625 18.914063 94.777344 18.910156 96.492188 C 14.445313 96.464844 9.980469 96.476563 5.523438 96.484375 C 5.546875 94.800781 5.46875 93.121094 5.539063 91.441406 C 5.558594 91.324219 5.59375 91.085938 5.613281 90.96875 C 8.449219 91.015625 11.28125 91.007813 14.117188 90.992188 C 14.070313 80.375 14.121094 69.761719 14.09375 59.148438 C 14.082031 57.652344 14.128906 56.152344 14.246094 54.660156 "/>
</g>
<path style=" stroke:none;fill-rule:nonzero;fill:rgb(0.799561%,0.799561%,0.799561%);fill-opacity:1;" d="M 78.445313 59.257813 C 79.453125 59.25 80.460938 59.25 81.46875 59.25 C 81.449219 62.9375 81.464844 66.625 81.457031 70.316406 C 81.460938 72.125 81.378906 73.9375 81.632813 75.738281 C 80.929688 76.105469 79.992188 76.402344 79.382813 75.691406 C 78.515625 74.589844 78.539063 73.089844 78.453125 71.753906 C 78.425781 67.589844 78.460938 63.421875 78.445313 59.257813 "/>
<path style=" stroke:none;fill-rule:nonzero;fill:rgb(0.799561%,0.799561%,0.799561%);fill-opacity:1;" d="M 188.234375 61.429688 C 188.542969 62.21875 188.960938 62.988281 189.070313 63.835938 C 189.097656 64.808594 188.578125 65.679688 188.246094 66.566406 C 188.105469 64.859375 188.109375 63.140625 188.234375 61.429688 "/>
<g clip-path="url(#clip12)" clip-rule="nonzero">
<path style=" stroke:none;fill-rule:nonzero;fill:rgb(0.799561%,0.799561%,0.799561%);fill-opacity:1;" d="M 188.214844 71.652344 C 188.3125 78.101563 188.191406 84.542969 188.273438 90.992188 C 191.992188 91.023438 195.707031 90.96875 199.425781 91.027344 C 199.34375 92.84375 199.375 94.664063 199.382813 96.480469 C 195.640625 96.46875 191.902344 96.488281 188.160156 96.46875 C 188.1875 88.199219 188.109375 79.921875 188.214844 71.652344 "/>
</g>
<g clip-path="url(#clip13)" clip-rule="nonzero">
<path style=" stroke:none;fill-rule:nonzero;fill:rgb(0.799561%,0.799561%,0.799561%);fill-opacity:1;" d="M 59.6875 81.941406 C 60.796875 81.480469 61.996094 81.476563 63.175781 81.515625 C 63.167969 86.503906 63.171875 91.496094 63.171875 96.492188 C 56.257813 96.484375 49.347656 96.441406 42.433594 96.515625 C 42.414063 94.8125 42.425781 93.109375 42.402344 91.402344 C 42.40625 91.300781 42.414063 91.085938 42.417969 90.976563 C 48.1875 91.019531 53.949219 91.003906 59.71875 90.996094 C 59.726563 87.976563 59.78125 84.957031 59.6875 81.941406 "/>
</g>
<g clip-path="url(#clip14)" clip-rule="nonzero">
<path style=" stroke:none;fill-rule:nonzero;fill:rgb(0.799561%,0.799561%,0.799561%);fill-opacity:1;" d="M 182.417969 81.460938 C 182.597656 86.464844 182.433594 91.480469 182.480469 96.488281 C 175.539063 96.46875 168.605469 96.476563 161.667969 96.484375 C 161.59375 94.679688 161.863281 92.839844 161.460938 91.070313 C 168.445313 90.902344 175.433594 91.070313 182.417969 90.980469 C 182.425781 87.808594 182.453125 84.632813 182.417969 81.460938 "/>
</g>
</g>
</svg>
